
        <svg xmlns="http://www.w3.org/2000/svg" xmlns:xlink="http://www.w3.org/1999/xlink" version="1.1" width="3153.452685421995" 
        height="2897.5703324808187" viewBox="0 0 3153.452685421995 2897.5703324808187">
			
			<g transform="scale(7.672634271099746) translate(10, 10)">
				<defs id="SvgjsDefs15263"><linearGradient id="SvgjsLinearGradient15270"><stop id="SvgjsStop15271" stop-color="#b88746" offset="0"></stop><stop id="SvgjsStop15272" stop-color="#fdf5a6" offset="1"></stop></linearGradient><linearGradient id="SvgjsLinearGradient15273"><stop id="SvgjsStop15274" stop-color="#b88746" offset="0"></stop><stop id="SvgjsStop15275" stop-color="#fdf5a6" offset="1"></stop></linearGradient><linearGradient id="SvgjsLinearGradient15276"><stop id="SvgjsStop15277" stop-color="#b88746" offset="0"></stop><stop id="SvgjsStop15278" stop-color="#fdf5a6" offset="1"></stop></linearGradient></defs><g id="SvgjsG15264" featureKey="rootContainer" transform="matrix(1.15,0,0,1.15,-5.75,0)" fill="url(#SvgjsLinearGradient15270)"><path xmlns="http://www.w3.org/2000/svg" fill-rule="evenodd" d="M5,65 L175,0 L345, 65 L175, 10 z M5,231 L175,311 L345,226 L175, 301 z"></path></g><g id="SvgjsG15265" featureKey="symbolFeature-0" transform="matrix(1.5491977679384197,0,0,1.5491977679384197,159.32977153534947,99.53523668055715)" fill="url(#SvgjsLinearGradient15273)"><g xmlns="http://www.w3.org/2000/svg"><path fill="url(#SvgjsLinearGradient15273)" d="M12.1,34.4l1.4,1.4l9.2-9.2c2.7,2.4,6.2,3.7,9.8,3.7c4,0,7.7-1.6,10.6-4.4c2.8-2.8,4.4-6.6,4.4-10.6   c0-4-1.6-7.7-4.4-10.6c-2.8-2.8-6.6-4.4-10.6-4.4c-4,0-7.7,1.6-10.6,4.4c-5.6,5.6-5.8,14.5-0.7,20.4L12.1,34.4z M23.5,6.3   c2.4-2.4,5.7-3.8,9.1-3.8c3.4,0,6.7,1.3,9.1,3.8s3.8,5.7,3.8,9.1c0,3.4-1.3,6.7-3.8,9.1c-2.4,2.4-5.7,3.8-9.1,3.8   c-3.4,0-6.7-1.3-9.1-3.8C18.4,19.5,18.4,11.3,23.5,6.3z"></path><rect x="4.3" y="33.1" transform="matrix(-0.7071 -0.7071 0.7071 -0.7071 -14.6286 73.9416)" fill="url(#SvgjsLinearGradient15273)" width="7.5" height="13.8"></rect><polygon fill="url(#SvgjsLinearGradient15273)" points="4.9,12.4 6.3,12.4 6.3,3.9 3.2,3.9 3.2,5.2 4.9,5.2  "></polygon><path fill="url(#SvgjsLinearGradient15273)" d="M11.7,12.5c1.2,0,2-0.4,2.6-1.2c0.6-0.8,0.9-1.9,0.9-3.2c0-1.3-0.3-2.4-0.9-3.2c-0.6-0.8-1.5-1.2-2.6-1.2   c-1.2,0-2,0.4-2.6,1.2C8.5,5.7,8.2,6.8,8.2,8.1c0,1.3,0.3,2.4,0.9,3.2C9.7,12.1,10.5,12.5,11.7,12.5z M10.1,5.8   c0.3-0.6,0.9-0.9,1.6-0.9c0.7,0,1.2,0.3,1.6,0.9c0.3,0.6,0.5,1.4,0.5,2.3c0,1-0.2,1.7-0.5,2.3c-0.3,0.6-0.9,0.9-1.6,0.9   c-0.7,0-1.2-0.3-1.6-0.9C9.8,9.8,9.6,9.1,9.6,8.1C9.6,7.1,9.8,6.4,10.1,5.8z"></path><path fill="url(#SvgjsLinearGradient15273)" d="M4.7,27.6c1.2,0,2-0.4,2.6-1.2c0.6-0.8,0.9-1.9,0.9-3.2c0-1.3-0.3-2.4-0.9-3.2c-0.6-0.8-1.5-1.2-2.6-1.2   c-1.2,0-2,0.4-2.6,1.2c-0.6,0.8-0.9,1.9-0.9,3.2c0,1.3,0.3,2.4,0.9,3.2C2.7,27.1,3.5,27.6,4.7,27.6z M3.1,20.8   c0.3-0.6,0.9-0.9,1.6-0.9s1.2,0.3,1.6,0.9c0.3,0.6,0.5,1.4,0.5,2.3c0,1-0.2,1.7-0.5,2.3C6,26,5.4,26.3,4.7,26.3S3.5,26,3.1,25.4   c-0.3-0.6-0.5-1.4-0.5-2.3C2.6,22.2,2.8,21.4,3.1,20.8z"></path><polygon fill="url(#SvgjsLinearGradient15273)" points="12.4,27.5 12.4,18.9 9.3,18.9 9.3,20.2 11,20.2 11,27.5  "></polygon><path fill="url(#SvgjsLinearGradient15273)" d="M22.9,35.4c-1.2,0-2,0.4-2.6,1.2c-0.6,0.8-0.9,1.9-0.9,3.2c0,1.3,0.3,2.4,0.9,3.2c0.6,0.8,1.5,1.2,2.6,1.2   c1.2,0,2-0.4,2.6-1.2c0.6-0.8,0.9-1.9,0.9-3.2c0-1.3-0.3-2.4-0.9-3.2C24.9,35.8,24,35.4,22.9,35.4z M24.4,42.2   c-0.3,0.6-0.9,0.9-1.6,0.9s-1.2-0.3-1.6-0.9c-0.3-0.6-0.5-1.4-0.5-2.3c0-1,0.2-1.7,0.5-2.3c0.3-0.6,0.9-0.9,1.6-0.9   s1.2,0.3,1.6,0.9c0.3,0.6,0.5,1.4,0.5,2.3C24.9,40.8,24.8,41.6,24.4,42.2z"></path><polygon fill="url(#SvgjsLinearGradient15273)" points="27.4,36.9 29.2,36.9 29.2,44.2 30.6,44.2 30.6,35.6 27.4,35.6  "></polygon><path fill="url(#SvgjsLinearGradient15273)" d="M36,35.4c-1.2,0-2,0.4-2.6,1.2c-0.6,0.8-0.9,1.9-0.9,3.2c0,1.3,0.3,2.4,0.9,3.2c0.6,0.8,1.5,1.2,2.6,1.2   c1.2,0,2-0.4,2.6-1.2c0.6-0.8,0.9-1.9,0.9-3.2c0-1.3-0.3-2.4-0.9-3.2C38,35.8,37.1,35.4,36,35.4z M37.6,42.2   c-0.3,0.6-0.9,0.9-1.6,0.9c-0.7,0-1.2-0.3-1.6-0.9c-0.3-0.6-0.5-1.4-0.5-2.3c0-1,0.2-1.7,0.5-2.3c0.3-0.6,0.9-0.9,1.6-0.9   c0.7,0,1.2,0.3,1.6,0.9c0.3,0.6,0.5,1.4,0.5,2.3C38.1,40.8,37.9,41.6,37.6,42.2z"></path><polygon fill="url(#SvgjsLinearGradient15273)" points="40.6,36.9 42.3,36.9 42.3,44.2 43.7,44.2 43.7,35.6 40.6,35.6  "></polygon><polygon fill="url(#SvgjsLinearGradient15273)" points="25,21.1 26.7,21.1 26.7,10.5 22.8,10.5 22.8,12.1 25,12.1  "></polygon><path fill="url(#SvgjsLinearGradient15273)" d="M33.4,21.2c1.4,0,2.5-0.5,3.2-1.5c0.7-1,1.1-2.3,1.1-4c0-1.7-0.4-3-1.1-4c-0.7-1-1.8-1.5-3.2-1.5   c-1.4,0-2.5,0.5-3.2,1.5c-0.7,1-1.1,2.3-1.1,4c0,1.7,0.4,3,1.1,4C30.8,20.7,31.9,21.2,33.4,21.2z M31.4,12.9c0.4-0.7,1.1-1.1,2-1.1   c0.9,0,1.5,0.4,2,1.1c0.4,0.7,0.6,1.7,0.6,2.9c0,1.2-0.2,2.2-0.6,2.9c-0.4,0.7-1.1,1.1-2,1.1c-0.9,0-1.5-0.4-2-1.1   c-0.4-0.7-0.6-1.7-0.6-2.9S31,13.6,31.4,12.9z"></path><polygon fill="url(#SvgjsLinearGradient15273)" points="41.2,21.1 42.9,21.1 42.9,10.5 39,10.5 39,12.1 41.2,12.1  "></polygon></g></g><g id="SvgjsG15266" featureKey="nameFeature-0" transform="matrix(1.0400446386346367,0,0,1.0400446386346367,20.99999950406807,200.30055585637683)" fill="url(#SvgjsLinearGradient15276)"><path d="M10.64 40 l-1.44 -9.88 l-4.04 0 l-1.32 9.88 l-3.84 0 l4.32 -28.6 l5.16 0 l5 28.6 l-3.84 0 z M5.68 26.32 l2.96 0 l-1.52 -10.4 z M28.308 11.36 l0 3.84 l-4.76 0 l0 24.84 l-3.84 0 l0 -24.84 l-5.24 0 l0 -3.84 l13.84 0 z M41.656 24.92 l-5.52 0 l0 11.28 l5.56 0 l0 3.8 l-9.36 0 l0 -28.56 l9.36 0 l0 3.8 l-5.56 0 l0 5.88 l5.52 0 l0 3.8 z M49.483999999999995 36.24 l5.52 0 l0 3.76 l-9.28 0 l0 -28.72 l3.76 0 l0 24.96 z M62.831999999999994 11.36 l0 28.48 l-3.8 0 l0 -28.48 l3.8 0 z M76.18 24.92 l-5.52 0 l0 11.28 l5.56 0 l0 3.8 l-9.36 0 l0 -28.56 l9.36 0 l0 3.8 l-5.56 0 l0 5.88 l5.52 0 l0 3.8 z M91.208 40.08 l-4.08 0 l-2.2 -6.04 l-0.88 0 l0 6.04 l-3.8 0 l0 -28.64 l5.96 0 c2.64 0 4.76 2.12 4.76 4.76 l0 13.08 c0 1.72 -0.88 3.2 -2.24 4.04 z M84.048 15.239999999999998 l0 15 l2.16 0 c0.52 0 0.96 -0.44 0.96 -0.96 l0 -13.08 c0 -0.52 -0.44 -0.96 -0.96 -0.96 l-2.16 0 z M114.54400000000001 33.44 l0.16 -22.16 l3.84 0 l-0.24 28.88 l-5.96 0 l-3.24 -22.36 l0 22.36 l-3.84 0 l0 -28.88 l6.2 0 z M128.452 40.08 c-3.24 0 -5.88 -2.64 -5.88 -5.88 l0 -22.72 l3.8 0 l0 22.72 c0 1.16 0.92 2.12 2.08 2.12 s2.08 -0.96 2.08 -2.12 l0 -22.72 l3.8 0 l0 22.72 c0 3.24 -2.64 5.88 -5.88 5.88 z M149.96 11.36 l6.68 0 l0 28.56 l-3.76 0 l0 -22.6 l-3.56 22.68 l-1.48 0 l-0.36 -0.08 l-0.32 0.08 l-1.48 0 l-3.52 -22.68 l0 22.6 l-3.8 0 l0 -28.56 l6.72 0 l2.44 16.16 z M169.988 24.92 l-5.52 0 l0 11.28 l5.56 0 l0 3.8 l-9.36 0 l0 -28.56 l9.36 0 l0 3.8 l-5.56 0 l0 5.88 l5.52 0 l0 3.8 z M166.788 9.16 l-4.48 0 l2.76 -3.68 l4.48 0 z M185.01600000000002 40.08 l-4.08 0 l-2.2 -6.04 l-0.88 0 l0 6.04 l-3.8 0 l0 -28.64 l5.96 0 c2.64 0 4.76 2.12 4.76 4.76 l0 13.08 c0 1.72 -0.88 3.2 -2.24 4.04 z M177.85600000000002 15.239999999999998 l0 15 l2.16 0 c0.52 0 0.96 -0.44 0.96 -0.96 l0 -13.08 c0 -0.52 -0.44 -0.96 -0.96 -0.96 l-2.16 0 z M192.84400000000002 11.36 l0 28.48 l-3.8 0 l0 -28.48 l3.8 0 z M209.95200000000003 39.6 l-2.92 2.72 l-2.2 -2.36 c-0.68 0.4 -1.52 0.56 -2.4 0.56 c-3.08 0 -5.56 -2.48 -5.56 -5.56 l0 -18.4 c0 -3.08 2.48 -5.56 5.56 -5.56 s5.56 2.48 5.56 5.56 l0 18.4 c0 0.76 -0.16 1.48 -0.4 2.16 z M202.43200000000002 36.56 c0.88 0 1.64 -0.68 1.64 -1.6 l0 -18.4 c0 -0.92 -0.76 -1.64 -1.64 -1.64 s-1.6 0.72 -1.6 1.64 l0 18.4 c0 0.92 0.72 1.6 1.6 1.6 z M218.18 40.08 c-3.24 0 -5.88 -2.64 -5.88 -5.88 l0 -22.72 l3.8 0 l0 22.72 c0 1.16 0.92 2.12 2.08 2.12 s2.08 -0.96 2.08 -2.12 l0 -22.72 l3.8 0 l0 22.72 c0 3.24 -2.64 5.88 -5.88 5.88 z M237.40800000000002 24.92 l-5.52 0 l0 11.28 l5.56 0 l0 3.8 l-9.36 0 l0 -28.56 l9.36 0 l0 3.8 l-5.56 0 l0 5.88 l5.52 0 l0 3.8 z M258.704 11.440000000000001 l3.8 0 l0 28.52 l-3.8 0 l0 -15.08 l-3.4 0 l0 15.08 l-3.8 0 l0 -28.52 l3.8 0 l0 9.68 l3.4 0 l0 -9.68 z M275.85200000000003 24.92 l-5.52 0 l0 11.28 l5.56 0 l0 3.8 l-9.36 0 l0 -28.56 l9.36 0 l0 3.8 l-5.56 0 l0 5.88 l5.52 0 l0 3.8 z M272.65200000000004 9.16 l-4.48 0 l2.76 -3.68 l4.48 0 z M290.88 40.08 l-4.08 0 l-2.2 -6.04 l-0.88 0 l0 6.04 l-3.8 0 l0 -28.64 l5.96 0 c2.64 0 4.76 2.12 4.76 4.76 l0 13.08 c0 1.72 -0.88 3.2 -2.24 4.04 z M283.72 15.239999999999998 l0 15 l2.16 0 c0.52 0 0.96 -0.44 0.96 -0.96 l0 -13.08 c0 -0.52 -0.44 -0.96 -0.96 -0.96 l-2.16 0 z M304.228 24.92 l-5.52 0 l0 11.28 l5.56 0 l0 3.8 l-9.36 0 l0 -28.56 l9.36 0 l0 3.8 l-5.56 0 l0 5.88 l5.52 0 l0 3.8 z M317.57599999999996 33.44 l0.16 -22.16 l3.84 0 l-0.24 28.88 l-5.96 0 l-3.24 -22.36 l0 22.36 l-3.84 0 l0 -28.88 l6.2 0 z M331.084 40.24 c-3.04 0 -5.48 -2.48 -5.48 -5.48 l0 -4.36 l3.88 0 l0 4.36 c0 0.88 0.72 1.6 1.6 1.6 s1.56 -0.72 1.56 -1.6 l0 -3.8 l-7.04 -9.72 l0 -4.96 c0 -3.04 2.44 -5.52 5.48 -5.52 c3 0 5.44 2.48 5.44 5.52 l0 4.32 l-3.88 0 l0 -4.32 c0 -0.92 -0.68 -1.6 -1.56 -1.6 s-1.6 0.68 -1.6 1.6 l0 3.64 l7.04 9.72 l0 5.12 c0 3 -2.44 5.48 -5.44 5.48 z"></path></g>
			</g>
		</svg>
	